<svg id="Layer_1" enable-background="new 0 0 512 512" height="512" viewBox="0 0 512 512" width="512" xmlns="http://www.w3.org/2000/svg"><g><path d="m483.662 70.744h-192.465c-2.67-10.099-11.882-17.567-22.809-17.567h-24.775c-10.927 0-20.14 7.468-22.809 17.567h-192.466c-15.626 0-28.338 12.727-28.338 28.372v63.424c0 9.697 15 9.697 15 0v-63.424c0-7.374 5.983-13.372 13.338-13.372h68.513l19.164 59.503c.925 2.874 4.153 5.222 7.15 5.222h96.855v13.918c0 46.273 71.959 46.402 71.959 0v-13.918l205.021-.022v280.004c0 7.374-5.983 13.372-13.338 13.372h-455.324c-7.355 0-13.338-5.999-13.338-13.372v-225.781c0-9.697-15-9.697-15 0v225.782c0 15.645 12.712 28.372 28.338 28.372h455.323c15.626 0 28.338-12.728 28.338-28.372v-287.505-43.831c.001-15.645-12.711-28.372-28.337-28.372zm-159.992 48.504 1.984 6.194 3.204 10.005h-36.358v-16.199zm15.751 0h56.2l5.188 16.199h-56.2l-1.977-6.173zm77.18 16.199-5.188-16.199h56.2l5.188 16.199zm-236.916-16.199 1.984 6.194 3.204 10.005h-56.242l-5.188-16.199zm20.939 16.199-1.977-6.173-3.211-10.027h24.064v16.199h-18.876zm19.397-49.703v18.504h-34.862-66.589l-5.96-18.504zm56.958 78.643c0 26.993-41.959 27.037-41.959 0v-87.62c0-4.737 3.854-8.591 8.592-8.591h24.775c4.737 0 8.592 3.854 8.592 8.591zm211.573-28.94-8.323-25.987c-.995-3.105-3.882-5.212-7.143-5.212h-181.107v-18.504h191.682c7.355 0 13.338 5.999 13.338 13.372v36.332h-8.447z"/><path d="m370.776 368.757c-9.697 0-9.697 15 0 15h23.801c4.142 0 7.5-3.358 7.5-7.5v-68.483c0-4.142-3.358-7.5-7.5-7.5h-277.154c-4.142 0-7.5 3.358-7.5 7.5v68.483c0 4.142 3.358 7.5 7.5 7.5h211.117c9.697 0 9.697-15 0-15h-203.617v-53.483h262.153v53.483z"/><path d="m164.31 334.516c-4.142 0-7.5 3.358-7.5 7.5s3.358 7.5 7.5 7.5h183.38c4.142 0 7.5-3.358 7.5-7.5s-3.358-7.5-7.5-7.5z"/></g></svg>