<svg
        xmlns="http://www.w3.org/2000/svg"
        xmlns:xlink="http://www.w3.org/1999/xlink"
        width="1171px" height="10839px">
    <path fill-rule="evenodd" fill="rgba(29, 136, 90, .1)"
          d="M1170.000,10839.000 L1170.000,-0.000 L1171.000,-0.000 L1171.000,10839.000 L1170.000,10839.000 ZM1003.000,-0.000 L1004.000,-0.000 L1004.000,10839.000 L1003.000,10839.000 L1003.000,-0.000 ZM836.000,-0.000 L837.000,-0.000 L837.000,10839.000 L836.000,10839.000 L836.000,-0.000 ZM669.000,-0.000 L670.000,-0.000 L670.000,10839.000 L669.000,10839.000 L669.000,-0.000 ZM501.000,-0.000 L502.000,-0.000 L502.000,10839.000 L501.000,10839.000 L501.000,-0.000 ZM334.000,-0.000 L335.000,-0.000 L335.000,10839.000 L334.000,10839.000 L334.000,-0.000 ZM167.000,-0.000 L168.000,-0.000 L168.000,10839.000 L167.000,10839.000 L167.000,-0.000 ZM-0.000,-0.000 L1.000,-0.000 L1.000,10839.000 L-0.000,10839.000 L-0.000,-0.000 Z"/>
</svg>