<svg xmlns="http://www.w3.org/2000/svg" viewBox="0 0 64 64" width="512" height="512"><g id="Finance"><path fill="#32956a" d="M61,54H60V33a1.033,1.033,0,0,0-.29-.71L56,28.59V3a1,1,0,0,0-1-1H33a1,1,0,0,0-1,1V45a1,1,0,0,0,1,1h8.52l-1.15,2.89a2.941,2.941,0,0,0,0,2.22L41.52,54H39a1,1,0,0,0-1,1v6a1,1,0,0,0,1,1H61a1,1,0,0,0,1-1V55A1,1,0,0,0,61,54Zm-5-9V31.41l2,2V54H43.68l-1.45-3.63a.95.95,0,0,1,0-.74l1.7-4.26A.937.937,0,0,0,44,45V36a2,2,0,0,1,4,0V49h2V46h5A1,1,0,0,0,56,45ZM34,44V4H54V44H50V36a4,4,0,0,0-8,0v8ZM60,60H40V56H60Z"/><path fill="#32956a" d="M44,32a8,8,0,1,0-8-8A8.009,8.009,0,0,0,44,32Zm0-14a6,6,0,1,1-6,6A6.006,6.006,0,0,1,44,18Z"/><path fill="#32956a" d="M50,11h2V7a1,1,0,0,0-1-1H47V8h3Z"/><path fill="#32956a" d="M38,8h3V6H37a1,1,0,0,0-1,1v4h2Z"/><path fill="#32956a" d="M29.52,10.15l-13-8a.976.976,0,0,0-1.04,0l-13,8a.984.984,0,0,0-.44,1.12A1,1,0,0,0,3,12H4v3a1,1,0,0,0,1,1v8H4a1,1,0,0,0-1,1v4a1,1,0,0,0,1,1H28a1,1,0,0,0,1-1V25a1,1,0,0,0-1-1H27V16a1,1,0,0,0,1-1V12h1a1,1,0,0,0,.96-.73A.984.984,0,0,0,29.52,10.15ZM16,4.17,25.47,10H6.53ZM6,12H26v2H6Zm19,4v8H23V16Zm-4,0v8H19V16Zm-4,0v8H15V16Zm-4,0v8H11V16ZM9,16v8H7V16ZM27,28H5V26H27Z"/><path fill="#32956a" d="M26,56H25V53a1,1,0,0,0-1-1H8a1,1,0,0,0-1,1v4a1,1,0,0,0,1,1H9v3a1,1,0,0,0,1,1H26a1,1,0,0,0,1-1V57A1,1,0,0,0,26,56ZM9,56V54h2v2Zm4,4H11V58h2Zm0-6h2v2H13Zm4,6H15V58h2Zm0-6h2v2H17Zm4,6H19V58h2Zm0-6h2v2H21Zm4,6H23V58h2Z"/><path fill="#32956a" d="M16,34a9,9,0,1,0,9,9A9.014,9.014,0,0,0,16,34Zm0,16a7,7,0,1,1,7-7A7.008,7.008,0,0,1,16,50Z"/><path fill="#32956a" d="M19,45a3.01,3.01,0,0,1-2,2.82V49H15V47.82A3.01,3.01,0,0,1,13,45h2a1,1,0,1,0,1-1,3,3,0,0,1-1-5.82V37h2v1.18A3.01,3.01,0,0,1,19,41H17a1,1,0,1,0-1,1A3.009,3.009,0,0,1,19,45Z"/></g></svg>
